<?xml version="1.0" encoding="UTF-8" standalone="no"?><!DOCTYPE svg PUBLIC "-//W3C//DTD SVG 1.1//EN" "http://www.w3.org/Graphics/SVG/1.1/DTD/svg11.dtd"><svg width="100%" height="100%" viewBox="0 0 571 647" version="1.1" xmlns="http://www.w3.org/2000/svg" xmlns:xlink="http://www.w3.org/1999/xlink" xml:space="preserve" xmlns:serif="http://www.serif.com/" style="fill-rule:evenodd;clip-rule:evenodd;stroke-linejoin:round;stroke-miterlimit:2;"><g><path d="M431.531,131.259c-7.668,-73.919 -70.253,-131.4 -146.103,-131.259c-75.821,0.147 -138.157,57.377 -146.611,130.892l-1.601,17.007l45.677,2.78l0.87,-16.859c6.856,-53.095 46.469,-88.683 101.585,-88.791c55.1,-0.104 95.71,36.008 101.693,89.695l2.836,22.705l44.424,-3.178l-2.77,-22.992Z" style="fill:#585653;"/><path d="M17.883,124.374c-9.925,0.099 -17.901,8.172 -17.883,18.096l0.504,263.313l0.09,47.08l0.025,12.58l0.311,162.69c0.018,9.977 8.122,18.051 18.099,18.028l162.66,-0.307l28.407,-0.054l180.287,-0.343c99.431,-0.19 180.614,-81.705 180.427,-181.102l-0.026,-12.578l-0.564,-295.584c-0.035,-18.11 -14.685,-32.792 -32.797,-32.856c-33.128,-0.117 -67.029,-0.184 -99.902,1.736l-40.993,3.613c-36.591,4.521 -73.559,12.775 -103.083,27.704c-5.235,2.645 -11.389,2.67 -16.596,-0.038c-30.959,-16.112 -64.626,-24.432 -103.003,-28.658l-40.992,-3.028c-38.467,-1.722 -77.766,-0.671 -114.971,-0.292Z" style="fill:#5ab244;"/><path d="M52.084,646.1l129.605,-0.246l28.407,-0.054l180.287,-0.343c44.055,-0.085 84.493,-16.139 115.865,-42.6c-36.868,-85.24 -121.805,-144.786 -220.559,-144.597c-114.422,0.217 -209.941,80.554 -233.605,187.84Z" style="fill:#8dc356;"/><path d="M286.059,645.655l106.43,-1.776c43.462,-0.082 83.003,-15.489 113.766,-41.007c39.621,-32.868 64.66,-82.57 64.555,-138.517l-0.026,-12.578l-0.599,-313.559c-0.016,-8.178 -6.629,-14.804 -14.803,-14.823c-38.744,-0.084 -79.017,-0.59 -117.861,1.678l-40.993,3.613c-40.113,4.957 -80.676,14.399 -111.396,32.202l0.927,484.767Z" style="fill:#449e45;"/><path d="M414.78,227.354c62.293,-0.117 112.907,50.307 113.022,112.585c0.118,62.282 -50.294,112.898 -112.594,113.019c-62.312,0.115 -112.892,-50.305 -113.011,-112.589c-0.118,-62.276 50.27,-112.893 112.583,-113.015Z" style="fill:#fefefe;"/><path d="M402.059,267.083c41.02,-4.181 77.688,25.678 81.865,66.655c4.188,41.046 -25.7,77.69 -66.721,81.876c-41.043,4.184 -77.68,-25.678 -81.863,-66.726c-1.396,-13.666 1.02,-26.853 6.349,-38.527c6.648,12.574 20.412,20.471 35.452,18.938c19.75,-2.011 34.159,-19.63 32.141,-39.395c-0.908,-8.894 -4.982,-16.677 -10.956,-22.363c1.23,-0.203 2.492,-0.332 3.733,-0.458Z" style="fill:#656360;"/><path d="M286.059,645.655l104.985,-0.202c44.055,-0.084 83.838,-16.119 115.211,-42.581c-36.457,-84.287 -123.208,-143.45 -220.556,-144.572l0.36,187.355Z" style="fill:#5ab244;"/><path d="M155.046,227.354c62.293,-0.117 112.908,50.307 113.024,112.585c0.121,62.282 -50.297,112.898 -112.594,113.019c-62.311,0.115 -112.895,-50.305 -113.013,-112.589c-0.118,-62.276 50.27,-112.893 112.583,-113.015Z" style="fill:#fefefe;"/><path d="M167.335,266.698c41.234,-0.08 74.746,33.282 74.823,74.474c0.08,41.26 -33.304,74.748 -74.536,74.824c-41.259,0.078 -74.742,-33.278 -74.82,-74.54c-0.029,-13.741 3.688,-26.62 10.155,-37.702c5.361,13.173 18.271,22.399 33.388,22.37c19.855,-0.038 35.942,-16.132 35.905,-35.997c-0.017,-8.939 -3.297,-17.094 -8.676,-23.345c1.241,-0.081 2.514,-0.081 3.761,-0.084Z" style="fill:#656360;"/><path d="M286.071,518.54l-0.033,-0c-0.074,-0 -0.15,-0 -0.222,-0.002c-13.891,-0.355 -45.825,-32.589 -56.751,-53.441c-0.946,-1.808 -1.731,-3.525 -2.338,-5.133c0.001,0 0.001,0.001 0.002,0.001c1.323,3.502 3.513,7.543 6.303,11.828c17.25,10.241 43.583,24.928 52.733,24.928c9.414,0 33.632,-13.038 50.591,-23.108l0.001,-0.003l0.358,-0.548l0.141,-0.219l0.017,-0.021l0.125,-0.199l0.369,-0.582l0.256,-0.405l0.122,-0.195l0.244,-0.392l0.119,-0.198l0.206,-0.331l0.418,-0.697l0.201,-0.333l0.114,-0.194l0.305,-0.523l0.279,-0.481l0.362,-0.634l0.227,-0.405l0.242,-0.443l0.105,-0.189l0.211,-0.391l0.376,-0.711c0.526,-1.003 1.015,-1.99 1.463,-2.955l0.003,-0.005l0.11,-0.237l0.052,-0.117l0.002,-0.002l0.027,-0.061l0.025,-0.059l0.026,-0.057l0,-0.002l0.03,-0.059l0.023,-0.06l0.026,-0.056l0.026,-0.063l0.029,-0.057l0.026,-0.057l-0,-0.002l0.024,-0.06l0.051,-0.114l0,-0.004l-0.051,0.118l-0.024,0.06l-0,0.002l-0.026,0.057l-0.029,0.057l-0.026,0.063l-0.026,0.056l-0.023,0.06l-0.03,0.059l0,0.002l-0.026,0.057l-0.025,0.059l-0.027,0.061l-0.002,0.002l-0.052,0.117l-0.11,0.237l-0.003,0.005c-0.422,0.915 -0.883,1.847 -1.375,2.793l-0.088,0.162c-0.122,0.237 -0.245,0.472 -0.376,0.711l-0.211,0.391l-0.105,0.189l-0.242,0.443l-0.227,0.405l-0.362,0.634l-0.279,0.481l-0.305,0.523l-0.114,0.194l-0.201,0.333l-0.418,0.697l-0.206,0.331l-0.119,0.198l-0.244,0.392l-0.122,0.195l-0.256,0.405l-0.369,0.582l-0.125,0.199l-0.017,0.021l-0.141,0.219l-0.359,0.551c-13.728,20.961 -38.62,44.896 -48.944,44.896l-0.053,-0c-0.25,-0 -0.456,0.008 -0.652,0.016c-0.202,0.01 -0.402,0.015 -0.636,0.015Z" style="fill:url(#_Linear1);"/><path d="M217.384,454.198c-0.087,-0.699 -0.147,-1.393 -0.179,-2.075c-0.09,-1.921 0.038,-3.772 0.428,-5.529c1.449,-5.156 3.358,-9.761 5.622,-13.882c0.54,-0.985 1.106,-1.946 1.688,-2.88c5.462,-8.763 12.576,-15.112 20.053,-19.716c0.869,-0.537 1.749,-1.048 2.628,-1.544c8.414,-4.688 17.095,-7.296 24.25,-8.749c2.48,-0.503 4.778,-0.865 6.816,-1.127c0,-0 3.783,-0.413 3.783,-0.413l0.112,-0.007l0.052,-0.006l-0.02,0.004l-0.032,0.002l-3.895,0.42c-2.157,0.278 -4.594,0.67 -7.232,1.216c0.694,-1.18 24.455,-3.091 28.582,0c-2.637,-0.546 -5.075,-0.938 -7.232,-1.216c0,-0 -3.894,-0.42 -3.894,-0.42l-0.033,-0.002l-0.02,-0.004l0.053,0.006l0.111,0.007l3.783,0.413c2.039,0.262 4.336,0.624 6.816,1.127c7.156,1.453 15.837,4.061 24.251,8.749c0.879,0.496 1.758,1.007 2.628,1.544c7.476,4.604 14.59,10.953 20.053,19.716c0.582,0.934 1.148,1.895 1.687,2.88c2.265,4.121 4.173,8.726 5.622,13.882c0.39,1.757 0.519,3.608 0.428,5.529c-0.032,0.682 -0.092,1.376 -0.179,2.075l0.02,-0.012l-0.02,0.012l-0.01,0.086c-0.099,0.091 -0.252,0.214 -0.452,0.363c-1.435,1.075 -5.306,3.614 -10.555,6.845l0,0.004c-16.495,10.161 -46.581,27.181 -57.332,27.181l-0.032,-0c-10.75,-0 -40.837,-17.02 -57.332,-27.181l0,-0.004c-5.249,-3.231 -9.119,-5.77 -10.554,-6.845c-0.201,-0.149 -0.353,-0.272 -0.453,-0.363l-0.01,-0.086l-0.02,-0.012l0.02,0.012Zm-0.105,-0.067l-0.054,-0.033l-0.003,-0.005l-0.007,-0.004l0.006,0.004l0.001,0l0.053,0.035l0.016,0.008l-0.012,-0.005Zm136.928,0.005l0.012,-0.005l0.055,-0.033l0.003,-0.005l0.006,-0.004l-0.006,0.004l-0,0l-0.053,0.035l-0.017,0.008Zm-137.026,-0.068l0.011,0.008l0.019,0.012l-0.023,-0.013l-0.007,-0.007Zm137.107,0.02l0.022,-0.013l0.007,-0.007l-0.01,0.008l-0.019,0.012Z" style="fill:url(#_Linear2);"/><path d="M281.955,398.321l-0.32,0.038l0.32,-0.038Z" style="fill:#fefefe;"/></g><defs><linearGradient id="_Linear1" x1="0" y1="0" x2="1" y2="0" gradientUnits="userSpaceOnUse" gradientTransform="matrix(0.106299,98.9988,-98.9988,0.106299,284.867,418.072)"><stop offset="0" style="stop-color:#f8ed13;stop-opacity:1"/><stop offset="1" style="stop-color:#f39816;stop-opacity:1"/><stop offset="1" style="stop-color:#f39816;stop-opacity:1"/></linearGradient><linearGradient id="_Linear2" x1="0" y1="0" x2="1" y2="0" gradientUnits="userSpaceOnUse" gradientTransform="matrix(-2.19094,107.435,-107.435,-2.19094,286.57,410.808)"><stop offset="0" style="stop-color:#f8ed13;stop-opacity:1"/><stop offset="1" style="stop-color:#f39816;stop-opacity:1"/><stop offset="1" style="stop-color:#f39816;stop-opacity:1"/></linearGradient></defs></svg>