<svg xmlns="http://www.w3.org/2000/svg" xmlns:xlink="http://www.w3.org/1999/xlink" width="88" height="88" viewBox="0 0 88 88">
  <defs>
    <filter id="Ellipse_1" x="0" y="0" width="88" height="88" filterUnits="userSpaceOnUse">
      <feOffset dx="2" dy="4" input="SourceAlpha"/>
      <feGaussianBlur stdDeviation="4" result="blur"/>
      <feFlood flood-opacity="0.122"/>
      <feComposite operator="in" in2="blur"/>
      <feComposite in="SourceGraphic"/>
    </filter>
    <clipPath id="clip-path">
      <rect id="Rectangle_8" data-name="Rectangle 8" width="32" height="32" transform="translate(1728 946.518)" fill="#fff" stroke="#707070" stroke-width="1"/>
    </clipPath>
  </defs>
  <g id="chat-wa" transform="translate(-158 8)">
    <g transform="matrix(1, 0, 0, 1, 158, -8)" filter="url(#Ellipse_1)">
      <circle id="Ellipse_1-2" data-name="Ellipse 1" cx="32" cy="32" r="32" transform="translate(10 8)" fill="#2db742"/>
    </g>
    <g id="Mask_Group_2" data-name="Mask Group 2" transform="translate(-1544 -930.518)" clip-path="url(#clip-path)">
      <path id="__TEMP__SVG__" d="M23.06,19c-.393-.2-2.322-1.145-2.681-1.277s-.622-.2-.885.2-1.014,1.276-1.242,1.537-.458.295-.851.1a10.782,10.782,0,0,1-3.157-1.949,11.765,11.765,0,0,1-2.183-2.72c-.228-.393-.024-.6.172-.8.177-.176.394-.458.589-.687a2.716,2.716,0,0,0,.394-.657.717.717,0,0,0-.033-.687c-.1-.2-.884-2.129-1.21-2.915-.32-.764-.643-.66-.884-.674s-.5-.014-.753-.013a1.438,1.438,0,0,0-1.046.491,4.4,4.4,0,0,0-1.374,3.275,7.639,7.639,0,0,0,1.6,4.06c.2.262,2.769,4.227,6.706,5.927a22.17,22.17,0,0,0,2.238.826,5.353,5.353,0,0,0,2.471.156,4.048,4.048,0,0,0,2.65-1.866,3.258,3.258,0,0,0,.228-1.866c-.1-.164-.359-.262-.753-.458M15.9,28.776h-.005a13.037,13.037,0,0,1-6.645-1.82l-.476-.282-4.942,1.3,1.318-4.818-.31-.494A13.057,13.057,0,1,1,15.9,28.776M27.009,4.608A15.711,15.711,0,0,0,2.286,23.56L.057,31.7l8.328-2.185a15.694,15.694,0,0,0,7.506,1.913H15.9A15.716,15.716,0,0,0,27.01,4.606Z" transform="translate(1728.018 947)" fill="#fff"/>
    </g>
  </g>
</svg>
