<svg xmlns="http://www.w3.org/2000/svg" xmlns:xlink="http://www.w3.org/1999/xlink" width="32" height="32" viewBox="0 0 32 32"><defs><clipPath id="a"><rect width="32" height="32" transform="translate(8 8)" fill="#fff"/></clipPath></defs><g transform="translate(-8 -8)" clip-path="url(#a)"><g transform="translate(2.711 2.713)"><path d="M37.16,14.733a11.584,11.584,0,0,0-.743-3.931A8.178,8.178,0,0,0,31.746,6.13a11.719,11.719,0,0,0-3.878-.745c-1.707-.077-2.247-.1-6.58-.1s-4.888,0-6.582.1a11.719,11.719,0,0,0-3.876.745A8.174,8.174,0,0,0,6.158,10.8a11.627,11.627,0,0,0-.743,3.876c-.077,1.708-.1,2.249-.1,6.582s0,4.886.1,6.582a11.694,11.694,0,0,0,.743,3.879,8.178,8.178,0,0,0,4.673,4.669,11.68,11.68,0,0,0,3.876.8c1.708.077,2.249.1,6.582.1s4.888,0,6.582-.1a11.691,11.691,0,0,0,3.878-.743,8.188,8.188,0,0,0,4.672-4.672,11.652,11.652,0,0,0,.743-3.879c.077-1.707.1-2.247.1-6.582s0-4.882-.1-6.58ZM21.278,29.452a8.2,8.2,0,1,1,8.2-8.2,8.2,8.2,0,0,1-8.2,8.2Zm8.528-14.794a1.912,1.912,0,1,1,1.91-1.912A1.91,1.91,0,0,1,29.806,14.658Z" fill="#fff"/><path d="M26.6,21.251a5.327,5.327,0,1,1-5.327-5.328A5.328,5.328,0,0,1,26.6,21.251Z" fill="#fff"/></g></g></svg>