<svg xmlns="http://www.w3.org/2000/svg" xmlns:xlink="http://www.w3.org/1999/xlink" width="24" height="24" viewBox="0 0 24 24">
  <defs>
    <clipPath id="clip-path">
      <rect id="Rectangle_4" data-name="Rectangle 4" width="24" height="24" transform="translate(34 12)" fill="#fff" stroke="#707070" stroke-width="1"/>
    </clipPath>
  </defs>
  <g id="logo-wa" transform="translate(-34 -12)" clip-path="url(#clip-path)">
    <path id="__TEMP__SVG__" d="M17.472,14.382c-.3-.149-1.758-.867-2.03-.967s-.471-.148-.67.15-.767.966-.94,1.164-.347.223-.644.075a8.163,8.163,0,0,1-2.39-1.475,8.907,8.907,0,0,1-1.653-2.059c-.173-.3-.018-.458.13-.606s.3-.347.446-.52a2.056,2.056,0,0,0,.3-.5.543.543,0,0,0-.025-.52c-.075-.149-.669-1.612-.916-2.207-.242-.579-.487-.5-.669-.51s-.38-.011-.57-.01a1.089,1.089,0,0,0-.792.372,3.333,3.333,0,0,0-1.04,2.479A5.784,5.784,0,0,0,7.22,12.325,13.256,13.256,0,0,0,12.3,16.812a16.784,16.784,0,0,0,1.694.625,4.052,4.052,0,0,0,1.871.118,3.064,3.064,0,0,0,2.006-1.413,2.466,2.466,0,0,0,.173-1.413c-.074-.124-.272-.2-.57-.347m-5.421,7.4h0a9.87,9.87,0,0,1-5.031-1.378l-.36-.214-3.741.982,1-3.648-.235-.374a9.885,9.885,0,1,1,8.373,4.632m8.413-18.3A11.895,11.895,0,0,0,1.745,17.837L.057,24l6.3-1.654a11.882,11.882,0,0,0,5.683,1.448h0A11.9,11.9,0,0,0,20.463,3.487Z" transform="translate(34 12)" fill="#fff"/>
  </g>
</svg>
