<svg xmlns="http://www.w3.org/2000/svg" xmlns:xlink="http://www.w3.org/1999/xlink" width="24" height="24" viewBox="0 0 24 24">
  <defs>
    <clipPath id="clip-path">
      <rect id="Rectangle_31" data-name="Rectangle 31" width="24" height="24" transform="translate(988 317)" fill="#af0a04" stroke="#707070" stroke-width="1"/>
    </clipPath>
  </defs>
  <g id="sektor" transform="translate(-988 -317)" clip-path="url(#clip-path)">
    <g id="__TEMP__SVG__" transform="translate(986.286 315.286)">
      <path id="Path_22" data-name="Path 22" d="M12,14.22,9.78,12,8.571,13.208,12,16.637,18.857,9.78,17.649,8.571Z" fill="#af0a04"/>
      <path id="Path_23" data-name="Path 23" d="M13.714,25.714,8.421,22.891a9.413,9.413,0,0,1-4.992-8.32V3.429A1.716,1.716,0,0,1,5.143,1.714H22.286A1.716,1.716,0,0,1,24,3.429V14.571a9.413,9.413,0,0,1-4.992,8.32ZM5.143,3.429V14.571a7.7,7.7,0,0,0,4.085,6.808l4.486,2.392L18.2,21.38a7.7,7.7,0,0,0,4.085-6.808V3.429Z" fill="#af0a04"/>
    </g>
  </g>
</svg>
