<svg xmlns="http://www.w3.org/2000/svg" xmlns:xlink="http://www.w3.org/1999/xlink" width="32" height="32" viewBox="0 0 32 32"><defs><clipPath id="a"><rect width="32" height="32" transform="translate(8 8)" fill="#fff"/></clipPath></defs><g transform="translate(-8 -8)" clip-path="url(#a)"><path d="M16.706.027C18.453,0,20.186.013,21.92,0a8.3,8.3,0,0,0,2.333,5.56,9.4,9.4,0,0,0,5.653,2.387V13.32a14.271,14.271,0,0,1-5.6-1.293,16.473,16.473,0,0,1-2.16-1.24c-.013,3.893.013,7.787-.027,11.667a10.184,10.184,0,0,1-1.8,5.253,9.934,9.934,0,0,1-7.88,4.28A9.722,9.722,0,0,1,7,30.613,10.055,10.055,0,0,1,2.133,23c-.027-.667-.04-1.333-.013-1.987a10.038,10.038,0,0,1,11.64-8.907c.027,1.973-.053,3.947-.053,5.92a4.575,4.575,0,0,0-5.84,2.827A5.289,5.289,0,0,0,7.68,23a4.538,4.538,0,0,0,4.667,3.827A4.479,4.479,0,0,0,16.04,24.68a3.076,3.076,0,0,0,.547-1.413c.133-2.387.08-4.76.093-7.147.013-5.373-.013-10.733.027-16.093Z" transform="translate(7.994 8)" fill="#fff"/></g></svg>