<svg xmlns="http://www.w3.org/2000/svg" xmlns:xlink="http://www.w3.org/1999/xlink" width="20" height="20" viewBox="0 0 20 20"><defs><clipPath id="a"><rect width="20" height="20" transform="translate(-0.257)" fill="#fff" stroke="#707070" stroke-width="1"/></clipPath></defs><g transform="translate(0.257)" clip-path="url(#a)"><path d="M12.2,10.885a5.652,5.652,0,0,1,1.207.545,5.364,5.364,0,0,1,1.108.656.525.525,0,0,1,.025.185,2.608,2.608,0,0,1-.211.941,1.662,1.662,0,0,1-.879.811,2.928,2.928,0,0,1-1.263.329,6.689,6.689,0,0,1-2.352-.768,7.059,7.059,0,0,1-2.1-1.461A16.328,16.328,0,0,1,5.893,9.832a4.33,4.33,0,0,1-.879-2.4v-.1a2.738,2.738,0,0,1,.916-1.956A.937.937,0,0,1,6.575,5.1a1.956,1.956,0,0,1,.223.019,1.991,1.991,0,0,0,.235.019.509.509,0,0,1,.328.08.893.893,0,0,1,.192.341q.1.248.408,1.09a7.357,7.357,0,0,1,.31.929,1.258,1.258,0,0,1-.427.712q-.427.452-.428.575a.353.353,0,0,0,.062.185,5.582,5.582,0,0,0,1.263,1.7A7.9,7.9,0,0,0,10.61,12a.548.548,0,0,0,.272.087q.185,0,.669-.6t.644-.6ZM9.682,17.447a7.569,7.569,0,0,0,3.015-.619,7.657,7.657,0,0,0,4.141-4.141,7.651,7.651,0,0,0,0-6.03A7.657,7.657,0,0,0,12.7,2.515a7.651,7.651,0,0,0-6.03,0A7.657,7.657,0,0,0,2.526,6.656a7.7,7.7,0,0,0,.867,7.571l-.978,2.885,3-.953A7.613,7.613,0,0,0,9.682,17.447Zm0-17.111a9.071,9.071,0,0,1,3.621.743A9.228,9.228,0,0,1,18.275,6.05a9.2,9.2,0,0,1,0,7.243A9.228,9.228,0,0,1,13.3,18.264a9.066,9.066,0,0,1-3.621.743,9.193,9.193,0,0,1-4.519-1.164L0,19.5l1.684-5.014A9.282,9.282,0,0,1,1.09,6.05,9.228,9.228,0,0,1,6.061,1.079,9.056,9.056,0,0,1,9.682.336Z" transform="translate(0.726 0.081)" fill="#fff"/></g></svg>