<svg xmlns="http://www.w3.org/2000/svg" xmlns:xlink="http://www.w3.org/1999/xlink" width="32" height="32" viewBox="0 0 32 32"><defs><clipPath id="a"><rect width="32" height="32" transform="translate(8 8)" fill="#fff"/></clipPath></defs><g transform="translate(-8 -8)" clip-path="url(#a)"><path d="M15.894,23.4V14.412l8.644,4.512L15.894,23.4ZM34.878,12.856a6.907,6.907,0,0,0-1.272-3.177A4.579,4.579,0,0,0,30.4,8.324C25.923,8,19.205,8,19.205,8h-.013S12.476,8,8,8.323A4.579,4.579,0,0,0,4.792,9.677,6.92,6.92,0,0,0,3.52,12.855a48.406,48.406,0,0,0-.32,5.179v2.428a48.433,48.433,0,0,0,.32,5.179,6.909,6.909,0,0,0,1.272,3.176,5.414,5.414,0,0,0,3.528,1.367c2.56.244,10.879.32,10.879.32s6.725-.01,11.2-.333a4.577,4.577,0,0,0,3.206-1.355,6.917,6.917,0,0,0,1.272-3.176,48.433,48.433,0,0,0,.32-5.179V18.034a48.38,48.38,0,0,0-.32-5.179Z" transform="translate(4.8 4.748)" fill="#fff" fill-rule="evenodd"/></g></svg>